:SAMPLES-PER-SECOND 30
:FULLY-SPECIFIED
:DEGREES
60
root  33.7735 33.297 7.1251 138.633 83.8903 148.035
RightUpLeg  3.74957 -7.09504 -3.7513
RightLeg  63.5195 13.3542 6.221
RightFoot  -20.7135 0.817866 12.4466
RightToes  1.16414e-010 -1.59028e-015 9.93923e-017
Spine  17.0331 2.43284 3.75643
Spine1  12.5874 4.0427 -5.04201
HEad  -5.07759 -14.9983 7.83197
LeftShoulder1  9.93923e-017 0 1.22299e-017
LeftArm  12.9542 37.5538 -78.2832
LeftForeArm  -43.4691 -21.7161 6.8211
LeftHand  0.977377 6.92619 0.672143
RightShoulder  1.98785e-016 -4.96962e-017 1.55301e-017
RightArm  22.6309 -30.511 91.6786
RightForeArm  -37.4624 24.7783 -23.6056
RightHand  1.84782 -13.8855 -8.37129
LeftUpLeg  -36.6125 -12.803 -8.58942
LeftLeg  47.994 -8.54569 3.45026
LeftFoot  0.745572 -0.939276 7.43263
LeftToes  4.22918e-010 -9.72932e-012 3.81536e-011
61
root  35.2815 33.5318 7.33333 128.616 83.7077 136.008
RightUpLeg  -0.0181916 -3.96553 -3.55401
RightLeg  67.4284 13.0582 6.54702
RightFoot  -5.99295 -1.02435 16.3192
RightToes  1.16414e-010 -1.59028e-015 9.93923e-017
Spine  18.6674 2.55604 3.0612
Spine1  10.2381 4.33718 -7.84721
HEad  -3.48739 -13.2325 7.89187
LeftShoulder1  9.93923e-017 0 1.22299e-017
LeftArm  14.7838 26.2203 -80.3776
LeftForeArm  -44.3814 -21.616 6.8068
LeftHand  0.891201 6.60843 4.80651
RightShoulder  1.98785e-016 -4.96962e-017 1.55301e-017
RightArm  27.7674 -27.7704 91.9815
RightForeArm  -39.6794 24.1101 -23.0393
RightHand  1.53887 -13.2153 -5.16517
LeftUpLeg  -36.6517 -13.3476 -8.88073
LeftLeg  49.3058 -7.87281 4.57482
LeftFoot  -3.22285 -0.480289 5.31659
LeftToes  4.22918e-010 -9.72932e-012 3.81536e-011
62
root  36.8225 34.0883 7.53389 117.338 83.9384 122.476
RightUpLeg  -4.30264 -0.582 -3.16644
RightLeg  69.5615 12.5303 5.71114
RightFoot  7.56578 -3.98069 21.271
RightToes  1.16414e-010 -1.59028e-015 9.93923e-017
Spine  18.156 2.60944 1.32379
Spine1  9.37646 4.05627 -8.77387
HEad  -1.86537 -11.0244 7.44281
LeftShoulder1  9.93923e-017 0 1.22299e-017
LeftArm  28.0051 19.1544 -81.3183
LeftForeArm  -51.0377 -25.9192 14.3215
LeftHand  0.679593 5.5952 8.12672
RightShoulder  1.98785e-016 -4.96962e-017 1.55301e-017
RightArm  30.0237 -26.2762 91.6804
RightForeArm  -39.4246 24.0887 -23.0415
RightHand  1.35233 -12.7781 -3.02555
LeftUpLeg  -35.1214 -13.9024 -8.72574
LeftLeg  47.8979 -6.92904 5.43798
LeftFoot  -5.58562 -0.314593 4.41342
LeftToes  4.22918e-010 -9.72932e-012 3.81536e-011
63
root  38.452 34.8986 7.71622 115.399 83.953 118.809
RightUpLeg  -8.1318 1.32513 -2.6819
RightLeg  70.2535 12.1406 4.74245
RightFoot  14.2541 -6.20812 25.3418
RightToes  1.16414e-010 -1.59028e-015 9.93923e-017
Spine  16.8433 2.14676 -0.884385
Spine1  9.7559 2.84643 -7.52712
HEad  -1.75548 -9.52161 6.41426
LeftShoulder1  9.93923e-017 0 1.22299e-017
LeftArm  29.4286 14.1308 -80.6306
LeftForeArm  -46.8808 -32.0391 20.0829
LeftHand  0.644881 5.29155 5.59825
RightShoulder  1.98785e-016 -4.96962e-017 1.55301e-017
RightArm  27.9001 -26.2841 90.4318
RightForeArm  -37.5739 25.2888 -23.931
RightHand  1.50435 -13.1649 -4.72952
LeftUpLeg  -32.3845 -15.3736 -8.42275
LeftLeg  45.5106 -5.88675 6.02663
LeftFoot  -7.69453 -0.198204 3.47715
LeftToes  4.22918e-010 -9.72932e-012 3.81536e-011
64
root  40.1949 35.8601 7.86488 121.688 84.2439 123.803
RightUpLeg  -11.946 1.87287 -1.80385
RightLeg  70.1006 12.1154 4.61908
RightFoot  13.0217 -5.51814 23.375
RightToes  1.16414e-010 -1.59028e-015 9.93923e-017
Spine  15.2865 1.26148 -1.95177
Spine1  10.3006 1.50484 -6.22231
HEad  -2.08641 -8.50294 5.05169
LeftShoulder1  9.93923e-017 0 1.22299e-017
LeftArm  23.9704 9.92885 -79.7992
LeftForeArm  -41.9431 -37.6593 22.5858
LeftHand  0.832142 5.9877 -0.175322
RightShoulder  1.98785e-016 -4.96962e-017 1.55301e-017
RightArm  24.0948 -28.036 88.7376
RightForeArm  -37.3841 26.6503 -24.8571
RightHand  1.6793 -13.4611 -6.8651
LeftUpLeg  -28.5711 -17.4407 -7.68254
LeftLeg  41.8835 -4.3779 6.5536
LeftFoot  -9.60655 -0.0882498 1.75376
LeftToes  4.22918e-010 -9.72932e-012 3.81536e-011
65
root  42.0544 36.8122 7.99678 127.552 85.4068 128.502
RightUpLeg  -15.9345 2.32681 -0.419115
RightLeg  68.7176 12.0646 4.21821
RightFoot  8.88732 -3.35747 17.0499
RightToes  1.16414e-010 -1.59028e-015 9.93923e-017
Spine  13.1672 0.35533 -1.90248
Spine1  10.5946 0.494814 -5.39758
HEad  -1.82139 -6.80321 3.83011
LeftShoulder1  9.93923e-017 0 1.22299e-017
LeftArm  19.8429 7.33442 -79.4217
LeftForeArm  -42.7032 -41.3825 24.5359
LeftHand  0.979236 6.8837 -2.8584
RightShoulder  1.98785e-016 -4.96962e-017 1.55301e-017
RightArm  22.09 -30.9102 87.1058
RightForeArm  -40.0911 27.0095 -24.9392
RightHand  1.59183 -13.1678 -6.16448
LeftUpLeg  -23.9459 -18.8234 -6.29996
LeftLeg  37.1343 -2.60459 6.71931
LeftFoot  -10.566 -0.0442481 0.599002
LeftToes  4.22918e-010 -9.72932e-012 3.81536e-011
66
root  43.9495 37.6442 8.15633 130.38 87.0682 130.565
RightUpLeg  -19.3553 2.93836 0.927861
RightLeg  65.653 11.8519 3.23654
RightFoot  6.99101 -2.42593 13.7301
RightToes  1.16414e-010 -1.59028e-015 9.93923e-017
Spine  10.9659 -0.458559 -2.33314
Spine1  10.7763 -0.642409 -3.89605
HEad  -1.08781 -4.11627 3.07835
LeftShoulder1  9.93923e-017 0 1.22299e-017
LeftArm  16.1164 6.47577 -78.9435
LeftForeArm  -43.4074 -44.1792 26.1556
LeftHand  1.01886 7.26958 -1.72272
RightShoulder  1.98785e-016 -4.96962e-017 1.55301e-017
RightArm  23.2882 -33.9209 85.4732
RightForeArm  -43.5583 26.2633 -24.2263
RightHand  1.41205 -12.7587 -4.10241
LeftUpLeg  -18.8758 -18.8677 -4.86845
LeftLeg  32.423 -1.42092 6.20108
LeftFoot  -10.6817 -0.0417127 0.435902
LeftToes  4.22918e-010 -9.72932e-012 3.81536e-011
67
root  45.811 38.3204 8.3621 125.441 88.399 125.533
RightUpLeg  -21.8196 3.20061 1.52379
RightLeg  61.2532 11.9909 3.05451
RightFoot  7.32228 -2.87153 15.8238
RightToes  1.16414e-010 -1.59028e-015 9.93923e-017
Spine  9.55395 -1.22646 -3.83833
Spine1  10.7145 -2.00373 -1.86924
HEad  -0.197379 -1.25989 2.74616
LeftShoulder1  9.93923e-017 0 1.22299e-017
LeftArm  13.1884 6.22715 -78.1335
LeftForeArm  -42.8405 -46.3681 27.6353
LeftHand  1.04577 7.44985 -0.672773
RightShoulder  1.98785e-016 -4.96962e-017 1.55301e-017
RightArm  26.8911 -36.9349 83.5941
RightForeArm  -45.2862 24.9262 -23.2437
RightHand  1.34757 -12.5579 -3.41123
LeftUpLeg  -13.5639 -18.5621 -4.10984
LeftLeg  28.3608 -0.446765 5.44712
LeftFoot  -10.5341 -0.0213517 -0.399353
LeftToes  4.22918e-010 -9.72932e-012 3.81536e-011
68
root  47.6579 38.8106 8.58818 80.1069 89.017 80.4198
RightUpLeg  -23.8587 3.27766 1.4631
RightLeg  55.8343 12.5697 3.53749
RightFoot  6.94696 -3.33544 18.7492
RightToes  1.16414e-010 -1.59028e-015 9.93923e-017
Spine  8.70642 -1.87167 -5.20273
Spine1  10.314 -2.98318 -0.623496
HEad  0.697872 1.19868 2.58191
LeftShoulder1  9.93923e-017 0 1.22299e-017
LeftArm  11.609 5.66596 -77.1689
LeftForeArm  -42.372 -47.676 28.5985
LeftHand  1.08708 7.77876 -1.09049
RightShoulder  1.98785e-016 -4.96962e-017 1.55301e-017
RightArm  31.2272 -40.3357 81.304
RightForeArm  -45.8348 23.4635 -22.2756
RightHand  1.37357 -12.5542 -3.88703
LeftUpLeg  -8.12788 -16.638 -4.21267
LeftLeg  24.3275 -0.800573 5.14815
LeftFoot  -10.01 0.0422717 -2.34837
LeftToes  4.22918e-010 -9.72932e-012 3.81536e-011
69
root  49.5161 39.0976 8.81312 21.4308 88.5806 21.7595
RightUpLeg  -25.8415 3.53842 1.32773
RightLeg  49.0316 12.9715 3.4739
RightFoot  5.61196 -3.16682 19.0406
RightToes  1.16414e-010 -1.59028e-015 9.93923e-017
Spine  7.61402 -2.40273 -5.62628
Spine1  9.96464 -3.46224 -0.20425
HEad  1.3116 3.36815 2.41255
LeftShoulder1  9.93923e-017 0 1.22299e-017
LeftArm  11.3268 4.8265 -76.2827
LeftForeArm  -42.0627 -48.05 28.8976
LeftHand  1.09791 7.8807 -1.59166
RightShoulder  1.98785e-016 -4.96962e-017 1.55301e-017
RightArm  34.9758 -44.0219 78.3391
RightForeArm  -47.3349 22.2682 -21.4495
RightHand  1.37656 -12.6256 -3.77954
LeftUpLeg  -3.16087 -11.4201 -4.21221
LeftLeg  20.2874 -4.25452 5.11827
LeftFoot  -9.03162 0.114713 -3.69787
LeftToes  4.22918e-010 -9.72932e-012 3.81536e-011
70
root  51.3731 39.2022 9.0426 -4.00488 87.8291 -3.91791
RightUpLeg  -27.3027 3.6136 1.29435
RightLeg  40.3564 12.9983 2.81521
RightFoot  5.49136 -2.97888 18.0778
RightToes  1.16414e-010 -1.59028e-015 9.93923e-017
Spine  6.21723 -3.00186 -5.6495
Spine1  9.95535 -3.98519 0.413608
HEad  1.41406 5.29165 2.13376
LeftShoulder1  9.93923e-017 0 1.22299e-017
LeftArm  11.8552 3.9833 -75.7022
LeftForeArm  -40.9852 -47.4793 28.5596
LeftHand  1.06325 7.61277 -1.67398
RightShoulder  1.98785e-016 -4.96962e-017 1.55301e-017
RightArm  37.5497 -47.6366 74.503
RightForeArm  -49.7271 21.4307 -20.8528
RightHand  1.34317 -12.6777 -3.06648
LeftUpLeg  0.801293 -6.47625 -3.22333
LeftLeg  17.4774 -8.21967 4.70376
LeftFoot  -8.46785 0.152266 -4.09828
LeftToes  4.22918e-010 -9.72932e-012 3.81536e-011
